<?xml version="1.0" encoding="utf-8"?>
<!-- Generator: Adobe Illustrator 19.0.0, SVG Export Plug-In . SVG Version: 6.00 Build 0)  -->
<svg version="1.1" id="Warstwa_1" xmlns="http://www.w3.org/2000/svg" xmlns:xlink="http://www.w3.org/1999/xlink" x="0px" y="0px"
	 viewBox="0 0 239.8 87.8" style="enable-background:new 0 0 239.8 87.8;" xml:space="preserve">
<style type="text/css">
	.st0{fill:#1D1D1B;}
	.st1{fill:#E20613;}
</style>
<g id="XMLID_1_">
	<path id="XMLID_401_" class="st0" d="M109,37.1c1-1,1.5-2.2,1.5-3.6c0-1.7-0.5-3-1.5-4c-1.1-1-2.6-1.5-4.7-1.5H90.6v25.8h2.7V39
		h9.7l5,14.8l2.7,0l-4.9-15.1C107.1,38.5,108.2,38,109,37.1z M93.3,30.7h10.9c1.2,0,2.1,0.2,2.8,0.7c0.6,0.4,0.9,1.2,0.9,2.2
		c0,0.9-0.4,1.6-1.2,2c-0.7,0.4-1.9,0.6-3.3,0.6H93.3V30.7z"/>
	<path id="XMLID_398_" class="st0" d="M125.9,27.4c-3.6,0-6.7,1.3-9.3,3.9c-2.6,2.6-3.9,5.7-3.9,9.4c0,3.6,1.3,6.7,3.8,9.3
		c2.5,2.6,5.7,3.9,9.3,3.9c3.7,0,6.8-1.3,9.4-3.9c2.5-2.6,3.8-5.7,3.8-9.3c0-3.6-1.3-6.8-3.9-9.4C132.7,28.7,129.6,27.4,125.9,27.4z
		 M125.9,51.4c-2.9,0-5.4-1.1-7.5-3.2c-2.1-2.1-3.1-4.7-3.1-7.6c0-3,1-5.6,3.1-7.7c2.1-2.1,4.6-3.1,7.5-3.1c2.9,0,5.5,1.1,7.5,3.2
		c2.1,2.1,3.1,4.7,3.1,7.6c0,3-1.1,5.5-3.1,7.6C131.4,50.4,128.9,51.4,125.9,51.4z"/>
	<path id="XMLID_397_" class="st0" d="M157.1,44.8c0,1.8-0.6,3.3-1.9,4.6c-1.3,1.3-2.8,1.9-4.6,1.9h-0.3c-1.9,0-3.4-0.7-4.8-2.1
		c-1.4-1.4-2.1-3.1-2.1-5v-0.5h-2.7v0.6c0,2.6,1,4.8,3,6.7c2,1.9,4.3,2.8,6.9,2.8c2.5,0,4.7-0.9,6.5-2.6c1.9-1.8,2.8-3.9,2.8-6.4
		V27.7h-2.7V44.8z"/>
	<path id="XMLID_396_" class="st0" d="M189.4,31.7c-2.6,2.4-3.9,5.6-3.9,9.3c0,3.6,1.2,6.7,3.7,9.1c2.4,2.5,5.5,3.7,9,3.7h7v-2.5
		h-5.5c-3.6,0-6.4-1-8.6-3.1c-2-1.9-3-4.2-3-7c0-3.5,1.2-6.2,3.7-8.2c2.1-1.7,4.5-2.5,7.1-2.5h6.2v-2.6h-5.9
		C195.3,28.1,192,29.3,189.4,31.7z"/>
	<polygon id="XMLID_395_" class="st0" points="207.5,28.4 207.5,30.7 215.9,30.7 215.9,53.8 218.4,53.8 218.4,30.7 226.8,30.7 
		226.8,28.4 	"/>
	<polygon id="XMLID_393_" class="st0" points="163.8,53.8 183.1,53.8 183.1,51.2 166.6,51.2 166.6,39.2 183.1,39.2 183.1,36.4 
		166.6,36.4 166.6,30.7 183.1,30.7 183.1,28 163.8,28 	"/>
	<path id="XMLID_9_" class="st0" d="M87.2,29.6c-1-0.9-2.4-1.3-3.9-1.3H69.5v8.2H56.9V14.2l-2.5-0.1L44.4,26.3L34.3,14.5V5.9H19.8v3
		h11.7v5h0l0,54c0,2.9-0.8,5.4-2.2,7.5c-1.5,2.1-3.2,3.1-5.2,3.1h-0.4c-2.1,0-3.8-1.1-5.4-3.4c-1.6-2.3-2.4-5.1-2.4-8.2v-0.5h-2.9
		V67c0,4,1.1,7.4,3.3,10.4c2.2,3,4.8,4.5,7.7,4.5c2.8,0,5.3-1.4,7.3-4.2c2-2.7,3.1-6,3.1-9.8l0-48.3L44.2,31l10-11.9v34.7l17.7,0v0
		V38.9h11.2c1.6,0,3-0.4,4-1.2c1.2-1,1.8-2.4,1.8-4.1C88.9,31.9,88.3,30.6,87.2,29.6z M56.9,51.2V38.9h12.5v12.3H56.9z M85.3,35.8
		c-0.6,0.5-1.5,0.7-2.5,0.7h-11v-5.6h10.9c1.1,0,1.9,0.2,2.5,0.6c0.7,0.5,1.1,1.2,1.1,2.2C86.3,34.6,86,35.3,85.3,35.8z"/>
	<rect id="XMLID_22_" x="56.9" y="38.9" class="st1" width="12.5" height="12.3"/>
</g>
</svg>
